<svg xmlns="http://www.w3.org/2000/svg" version="1.1" xmlns:xlink="http://www.w3.org/1999/xlink" xmlns:svgjs="http://svgjs.dev/svgjs" width="2400" height="1024" preserveAspectRatio="none" viewBox="0 0 2400 1024">
    <g mask="url(&quot;#SvgjsMask1692&quot;)" fill="none">
        <rect width="2400" height="1024" x="0" y="0" fill="#0e2a47"></rect>
        <path d="M232.36 243.8L405.57 343.8L405.57 543.8L232.36 643.8L59.15 543.8L59.15 343.8zM405.57 543.8L578.78 643.8L578.78 843.8L405.57 943.8L232.36 843.8L232.36 643.8zM578.78 843.8L751.99 943.8L751.99 1143.8L578.78 1243.8L405.57 1143.8L405.57 943.8zM1098.41 -56.2L1271.62 43.8L1271.62 243.8L1098.41 343.8L925.2 243.8L925.2 43.8zM1098.41 543.8L1271.62 643.8L1271.62 843.8L1098.41 943.8L925.2 843.8L925.2 643.8zM1271.62 843.8L1444.83 943.8L1444.83 1143.8L1271.62 1243.8L1098.41 1143.8L1098.41 943.8zM1618.04 243.8L1791.25 343.8L1791.25 543.8L1618.04 643.8L1444.83 543.8L1444.83 343.8zM1444.83 543.8L1618.04 643.8L1618.04 843.8L1444.83 943.8L1271.62 843.8L1271.62 643.8zM1791.25 -56.2L1964.46 43.8L1964.46 243.8L1791.25 343.8L1618.04 243.8L1618.04 43.8z" stroke="rgba(254, 110, 31, 0.5)" stroke-width="2"></path>
        <path d="M212.36 243.8 a20 20 0 1 0 40 0 a20 20 0 1 0 -40 0zM385.57 343.8 a20 20 0 1 0 40 0 a20 20 0 1 0 -40 0zM385.57 543.8 a20 20 0 1 0 40 0 a20 20 0 1 0 -40 0zM212.36 643.8 a20 20 0 1 0 40 0 a20 20 0 1 0 -40 0zM39.15 543.8 a20 20 0 1 0 40 0 a20 20 0 1 0 -40 0zM39.15 343.8 a20 20 0 1 0 40 0 a20 20 0 1 0 -40 0zM558.78 643.8 a20 20 0 1 0 40 0 a20 20 0 1 0 -40 0zM558.78 843.8 a20 20 0 1 0 40 0 a20 20 0 1 0 -40 0zM385.57 943.8 a20 20 0 1 0 40 0 a20 20 0 1 0 -40 0zM212.36 843.8 a20 20 0 1 0 40 0 a20 20 0 1 0 -40 0zM731.99 943.8 a20 20 0 1 0 40 0 a20 20 0 1 0 -40 0zM731.99 1143.8 a20 20 0 1 0 40 0 a20 20 0 1 0 -40 0zM558.78 1243.8 a20 20 0 1 0 40 0 a20 20 0 1 0 -40 0zM385.57 1143.8 a20 20 0 1 0 40 0 a20 20 0 1 0 -40 0zM1078.41 -56.2 a20 20 0 1 0 40 0 a20 20 0 1 0 -40 0zM1251.62 43.8 a20 20 0 1 0 40 0 a20 20 0 1 0 -40 0zM1251.62 243.8 a20 20 0 1 0 40 0 a20 20 0 1 0 -40 0zM1078.41 343.8 a20 20 0 1 0 40 0 a20 20 0 1 0 -40 0zM905.2 243.8 a20 20 0 1 0 40 0 a20 20 0 1 0 -40 0zM905.2 43.8 a20 20 0 1 0 40 0 a20 20 0 1 0 -40 0zM1078.41 543.8 a20 20 0 1 0 40 0 a20 20 0 1 0 -40 0zM1251.62 643.8 a20 20 0 1 0 40 0 a20 20 0 1 0 -40 0zM1251.62 843.8 a20 20 0 1 0 40 0 a20 20 0 1 0 -40 0zM1078.41 943.8 a20 20 0 1 0 40 0 a20 20 0 1 0 -40 0zM905.2 843.8 a20 20 0 1 0 40 0 a20 20 0 1 0 -40 0zM905.2 643.8 a20 20 0 1 0 40 0 a20 20 0 1 0 -40 0zM1424.83 943.8 a20 20 0 1 0 40 0 a20 20 0 1 0 -40 0zM1424.83 1143.8 a20 20 0 1 0 40 0 a20 20 0 1 0 -40 0zM1251.62 1243.8 a20 20 0 1 0 40 0 a20 20 0 1 0 -40 0zM1078.41 1143.8 a20 20 0 1 0 40 0 a20 20 0 1 0 -40 0zM1598.04 243.8 a20 20 0 1 0 40 0 a20 20 0 1 0 -40 0zM1771.25 343.8 a20 20 0 1 0 40 0 a20 20 0 1 0 -40 0zM1771.25 543.8 a20 20 0 1 0 40 0 a20 20 0 1 0 -40 0zM1598.04 643.8 a20 20 0 1 0 40 0 a20 20 0 1 0 -40 0zM1424.83 543.8 a20 20 0 1 0 40 0 a20 20 0 1 0 -40 0zM1424.83 343.8 a20 20 0 1 0 40 0 a20 20 0 1 0 -40 0zM1598.04 843.8 a20 20 0 1 0 40 0 a20 20 0 1 0 -40 0zM1771.25 -56.2 a20 20 0 1 0 40 0 a20 20 0 1 0 -40 0zM1944.46 43.8 a20 20 0 1 0 40 0 a20 20 0 1 0 -40 0zM1944.46 243.8 a20 20 0 1 0 40 0 a20 20 0 1 0 -40 0zM1598.04 43.8 a20 20 0 1 0 40 0 a20 20 0 1 0 -40 0z" fill="rgba(254, 110, 31, 0.5)"></path>
        <path d="M294.33 879.19L467.54 979.19L467.54 1179.19L294.33 1279.19L121.12 1179.19L121.12 979.19zM467.54 -20.81L640.75 79.19L640.75 279.19L467.54 379.19L294.33 279.19L294.33 79.19zM813.96 -20.81L987.17 79.19L987.17 279.19L813.96 379.19L640.75 279.19L640.75 79.19zM987.17 879.19L1160.38 979.19L1160.38 1179.19L987.17 1279.19L813.96 1179.19L813.96 979.19zM1160.38 -20.81L1333.59 79.19L1333.59 279.19L1160.38 379.19L987.17 279.19L987.17 79.19zM1506.8 -20.81L1680.01 79.19L1680.01 279.19L1506.8 379.19L1333.59 279.19L1333.59 79.19zM1680.01 279.19L1853.22 379.19L1853.22 579.19L1680.01 679.19L1506.8 579.19L1506.8 379.19zM1506.8 579.19L1680.01 679.19L1680.01 879.19L1506.8 979.19L1333.59 879.19L1333.59 679.19zM1680.01 879.19L1853.22 979.19L1853.22 1179.19L1680.01 1279.19L1506.8 1179.19L1506.8 979.19z" stroke="rgba(23, 185, 249, 0.5)" stroke-width="2"></path>
        <path d="M274.33 879.19 a20 20 0 1 0 40 0 a20 20 0 1 0 -40 0zM447.54 979.19 a20 20 0 1 0 40 0 a20 20 0 1 0 -40 0zM447.54 1179.19 a20 20 0 1 0 40 0 a20 20 0 1 0 -40 0zM274.33 1279.19 a20 20 0 1 0 40 0 a20 20 0 1 0 -40 0zM101.12 1179.19 a20 20 0 1 0 40 0 a20 20 0 1 0 -40 0zM101.12 979.19 a20 20 0 1 0 40 0 a20 20 0 1 0 -40 0zM447.54 -20.81 a20 20 0 1 0 40 0 a20 20 0 1 0 -40 0zM620.75 79.19 a20 20 0 1 0 40 0 a20 20 0 1 0 -40 0zM620.75 279.19 a20 20 0 1 0 40 0 a20 20 0 1 0 -40 0zM447.54 379.19 a20 20 0 1 0 40 0 a20 20 0 1 0 -40 0zM274.33 279.19 a20 20 0 1 0 40 0 a20 20 0 1 0 -40 0zM274.33 79.19 a20 20 0 1 0 40 0 a20 20 0 1 0 -40 0zM793.96 -20.81 a20 20 0 1 0 40 0 a20 20 0 1 0 -40 0zM967.17 79.19 a20 20 0 1 0 40 0 a20 20 0 1 0 -40 0zM967.17 279.19 a20 20 0 1 0 40 0 a20 20 0 1 0 -40 0zM793.96 379.19 a20 20 0 1 0 40 0 a20 20 0 1 0 -40 0zM967.17 879.19 a20 20 0 1 0 40 0 a20 20 0 1 0 -40 0zM1140.38 979.19 a20 20 0 1 0 40 0 a20 20 0 1 0 -40 0zM1140.38 1179.19 a20 20 0 1 0 40 0 a20 20 0 1 0 -40 0zM967.17 1279.19 a20 20 0 1 0 40 0 a20 20 0 1 0 -40 0zM793.96 1179.19 a20 20 0 1 0 40 0 a20 20 0 1 0 -40 0zM793.96 979.19 a20 20 0 1 0 40 0 a20 20 0 1 0 -40 0zM1140.38 -20.81 a20 20 0 1 0 40 0 a20 20 0 1 0 -40 0zM1313.59 79.19 a20 20 0 1 0 40 0 a20 20 0 1 0 -40 0zM1313.59 279.19 a20 20 0 1 0 40 0 a20 20 0 1 0 -40 0zM1140.38 379.19 a20 20 0 1 0 40 0 a20 20 0 1 0 -40 0zM1486.8 -20.81 a20 20 0 1 0 40 0 a20 20 0 1 0 -40 0zM1660.01 79.19 a20 20 0 1 0 40 0 a20 20 0 1 0 -40 0zM1660.01 279.19 a20 20 0 1 0 40 0 a20 20 0 1 0 -40 0zM1486.8 379.19 a20 20 0 1 0 40 0 a20 20 0 1 0 -40 0zM1833.22 379.19 a20 20 0 1 0 40 0 a20 20 0 1 0 -40 0zM1833.22 579.19 a20 20 0 1 0 40 0 a20 20 0 1 0 -40 0zM1660.01 679.19 a20 20 0 1 0 40 0 a20 20 0 1 0 -40 0zM1486.8 579.19 a20 20 0 1 0 40 0 a20 20 0 1 0 -40 0zM1660.01 879.19 a20 20 0 1 0 40 0 a20 20 0 1 0 -40 0zM1486.8 979.19 a20 20 0 1 0 40 0 a20 20 0 1 0 -40 0zM1313.59 879.19 a20 20 0 1 0 40 0 a20 20 0 1 0 -40 0zM1313.59 679.19 a20 20 0 1 0 40 0 a20 20 0 1 0 -40 0zM1833.22 979.19 a20 20 0 1 0 40 0 a20 20 0 1 0 -40 0zM1833.22 1179.19 a20 20 0 1 0 40 0 a20 20 0 1 0 -40 0zM1660.01 1279.19 a20 20 0 1 0 40 0 a20 20 0 1 0 -40 0zM1486.8 1179.19 a20 20 0 1 0 40 0 a20 20 0 1 0 -40 0z" fill="rgba(23, 185, 249, 0.5)"></path>
    </g>
    <defs>
        <mask id="SvgjsMask1692">
            <rect width="2400" height="1024" fill="#ffffff"></rect>
        </mask>
    </defs>
</svg>